<svg xmlns="http://www.w3.org/2000/svg" xmlns:xlink="http://www.w3.org/1999/xlink" viewBox="0 0 463.17 96.94"><defs><style>.cls-1{fill:#54565a;}.cls-2,.cls-3,.cls-4,.cls-5,.cls-9{fill-rule:evenodd;}.cls-2{fill:url(#linear-gradient);}.cls-3{fill:url(#linear-gradient-2);}.cls-4{fill:url(#linear-gradient-3);}.cls-5{fill:url(#linear-gradient-4);}.cls-6{fill:url(#linear-gradient-5);}.cls-7{fill:url(#linear-gradient-6);}.cls-8{fill:url(#linear-gradient-7);}.cls-9{fill:#fff;}</style><linearGradient id="linear-gradient" x1="1622.43" y1="-1652.12" x2="1598.9" y2="-1652.12" gradientTransform="translate(-3161.95 3384.56) scale(2.01)" gradientUnits="userSpaceOnUse"><stop offset="0" stop-color="#a7a9ac"/><stop offset="1" stop-color="#fff"/></linearGradient><linearGradient id="linear-gradient-2" x1="1625.01" y1="-1666.88" x2="1613.55" y2="-1666.88" xlink:href="#linear-gradient"/><linearGradient id="linear-gradient-3" x1="1615.31" y1="-1684.05" x2="1602.1" y2="-1684.05" xlink:href="#linear-gradient"/><linearGradient id="linear-gradient-4" x1="1613.23" y1="-1673.81" x2="1584.76" y2="-1673.81" xlink:href="#linear-gradient"/><linearGradient id="linear-gradient-5" x1="1578.09" y1="-1667.35" x2="1625.23" y2="-1667.35" gradientTransform="translate(-3161.95 3384.56) scale(2.01)" gradientUnits="userSpaceOnUse"><stop offset="0" stop-color="#ec008c"/><stop offset="0.61" stop-color="#2e3192"/><stop offset="1" stop-color="#00aeef"/></linearGradient><linearGradient id="linear-gradient-6" x1="1587.77" y1="-1677.49" x2="1624.11" y2="-1677.49" gradientTransform="translate(-3161.95 3384.56) scale(2.01)" gradientUnits="userSpaceOnUse"><stop offset="0" stop-color="#00aeef"/><stop offset="0.25" stop-color="#00aeef"/><stop offset="0.6" stop-color="#00a651"/><stop offset="0.91" stop-color="#fff200"/><stop offset="1" stop-color="#fff200"/></linearGradient><linearGradient id="linear-gradient-7" x1="1576.88" y1="-1653.93" x2="1621.61" y2="-1653.93" gradientTransform="translate(-3161.95 3384.56) scale(2.01)" gradientUnits="userSpaceOnUse"><stop offset="0" stop-color="#fff200"/><stop offset="0.12" stop-color="#fff200"/><stop offset="0.4" stop-color="#ed1c24"/><stop offset="0.87" stop-color="#ec008c"/><stop offset="1" stop-color="#ec008c"/></linearGradient></defs><g id="Layer_2" data-name="Layer 2"><g id="Layer_1-2" data-name="Layer 1"><path class="cls-1" d="M348.15,34c-5.27,0-10,1.47-13.5,6.12C332.92,35.5,328.84,34,323.88,34A15.72,15.72,0,0,0,311.09,40l-.17.16.66-5.16H302a5.7,5.7,0,0,0-5.39,4.72c-1.7,11.36-3.79,22.67-5.9,34h9.83a5.7,5.7,0,0,0,5.3-4.58c.77-5.36,1.89-12.46,2.86-18,.58-3.32,2.53-7.68,6.56-7.68,3.26,0,4.6,2.8,4.25,5.51-.18,1.48-4.15,24.82-4.15,24.82l9.48-.11a5.71,5.71,0,0,0,5.39-5h0c.8-5.44,1.92-12.75,2.89-18.15.58-3.16,2.68-7.06,6.48-7.06,3.41,0,4.49,3,4.13,5.82-.52,4.11-4.07,24.4-4.07,24.4h10.18a5.72,5.72,0,0,0,5.39-5c1.82-11.09,4.09-22.46,4.31-24.21C360.5,36.9,355.05,34,348.15,34Z"/><path class="cls-1" d="M459.84,35H443.63c-2.87,3.72-5.75,7.44-8.4,11.24L431.54,35H413.93l9.61,18.38L405.92,73.66h16.83l9.42-12.57,4.46,12.57H454c-3.48-6.75-7-13.42-10.13-20.32Z"/><path class="cls-1" d="M180.07,35a5.69,5.69,0,0,0-5.25,4.13c-.13,0-6,34.75-6,34.75l11-.18A5.69,5.69,0,0,0,185.19,69c1.47-11.33,5.43-34,5.43-34Z"/><path class="cls-1" d="M182.58,21v0A5.72,5.72,0,0,0,177,25.67l-.64,3.93h14.8l1.56-8.6Z"/><path class="cls-1" d="M229,34c-5.26,0-9.76,1.66-13.29,6.32a1.62,1.62,0,0,0,0-.23l.67-5.16H205.81a5.7,5.7,0,0,0-5.39,4.72c-1.7,11.36-5.44,34-5.44,34h10.7a5.71,5.71,0,0,0,5.4-5h0c.8-5.44,2-12.66,2.88-18.15.54-3.5,3-7.06,6.82-7.06,3.4,0,4.15,3,3.8,5.82-.52,4.11-3.82,24.4-3.82,24.4h9.92a5.7,5.7,0,0,0,5.39-5c1.83-11.09,4.1-22.46,4.32-24.21C241.36,36.9,235.91,34,229,34Z"/><path class="cls-1" d="M159.72,61.54a54.3,54.3,0,0,1-12.49,1.72c-8.84,0-15-4.73-13.79-14.19,1-7.76,7.24-16.75,20.35-16.75a50.27,50.27,0,0,1,11.87,1.86L168,22.46A96.8,96.8,0,0,0,152.9,21c-17.45,0-33.38,9.38-35.77,28.23-2.56,20.24,13.85,25.36,26,25.36a103.64,103.64,0,0,0,14.56-1.16C158,72,158.77,67.17,159.72,61.54Z"/><path class="cls-1" d="M281.6,62.62c-4.12,1.12-8.44,2.19-12.56,2.19-5.11,0-9.88-2.17-9.12-8.21H286.6a30.47,30.47,0,0,0,1.28-5.83C289.25,40,283,34,270.31,34c-20.63,0-24.48,17.45-25,21.56-1.94,15.27,8.37,19,20.7,19a69.26,69.26,0,0,0,13.65-1.47Q280.65,67.87,281.6,62.62ZM269.53,42.19c4.19,0,6,2.61,5.3,7.67h-14C261.72,46.1,264.83,42.19,269.53,42.19Z"/><path class="cls-1" d="M401.16,62.62a49.16,49.16,0,0,1-12.56,2.19c-5.11,0-9.88-2.17-9.12-8.21h26.69a31.21,31.21,0,0,0,1.27-5.83C408.82,40,402.6,34,389.88,34c-20.64,0-24.48,17.45-25,21.56-1.94,15.27,8.36,19,20.7,19a69.36,69.36,0,0,0,13.66-1.47Q400.22,67.87,401.16,62.62ZM389.1,42.19c4.19,0,5.95,2.61,5.3,7.67h-14C381.28,46.1,384.4,42.19,389.1,42.19Z"/><path class="cls-1" d="M459.42,65.58a3.83,3.83,0,1,1-3.79,3.81,3.76,3.76,0,0,1,3.79-3.81Zm0,.6a3.23,3.23,0,1,0,3.06,3.23,3.13,3.13,0,0,0-3.06-3.23Zm-.71,5.44H458V67.36a7.6,7.6,0,0,1,1.2-.1,2.18,2.18,0,0,1,1.32.32,1,1,0,0,1,.39.88,1.06,1.06,0,0,1-.82,1v0c.36.06.62.4.7,1a4.39,4.39,0,0,0,.27,1.06h-.71a3.27,3.27,0,0,1-.28-1.09.81.81,0,0,0-.92-.75h-.47Zm0-2.37h.49c.56,0,1-.19,1-.72,0-.38-.27-.75-1-.75a4.49,4.49,0,0,0-.49,0Z"/><path class="cls-2" d="M44.16,64.46l13.46,12c17.24,4.33,29.47,2.94,32.71-3.32a8.77,8.77,0,0,0,1-4.51q-15.91,7.17-47.16-4.2Z"/><path class="cls-3" d="M94.14,35.75q-2.55,7-20.6,4.49l9.09,8.26q15.11.36,13.79-8.34a6.78,6.78,0,0,0-2.28-4.41Z"/><path class="cls-4" d="M77.06,13.47Q63.71,1.92,53.83.6c-1.64,0-3.26,1-3.26,2.72C50.57,9,64.83,14.79,72,14.79,73.64,14.89,75.94,14.5,77.06,13.47Z"/><path class="cls-5" d="M72.89,47.89,61,37.32C40.42,30.57,19.25,15.86,23.29,8.63c-2.95-.4-5.4,1.42-7.33,5.51-2.66,9.48,29.84,30,56.93,33.75Z"/><path class="cls-6" d="M96.33,40.06C98,47.32,96.14,60.78,93,67.61c-1.19,1.86-5.37,4.7-14.74,4.7-27,0-75.81-21.56-75.81-39C4,26.71,10.37,16.19,18.85,10a6.1,6.1,0,0,0-2.26,4.67c0,13.51,41.39,33.41,66.27,33.41C88.85,48.12,96.33,47,96.33,40.06Z"/><path class="cls-7" d="M71.17,5.63a49.1,49.1,0,0,1,23.5,27.92c.61,6-4.7,8.16-12.17,8.16-23,0-60.66-18.62-60.66-30.73a6.41,6.41,0,0,1,2-4.17C35.53-.65,51.17-1.12,57.52,1.32c-3.05-.86-6.28-.11-6.28,2.15,0,3.26,11.71,10.68,21.53,10.68.9,0,4.42,0,4.42-2.33C77.19,9.88,74.17,7.35,71.17,5.63Z"/><path class="cls-8" d="M.74,39.24c-1.16,10.4,19,23.51,40.7,31.56C61.52,78.27,82.89,81.4,89.7,74,76.48,94.09,55.65,100,37.39,95.56,14.71,90.11-4,68.83.74,39.24Z"/><path class="cls-9" d="M27.88,5.6c.3-.14.46-.09.35.1a3.29,3.29,0,0,1-.87.88s-2.75,1.35-2.87,1.35l.32-.58a2.22,2.22,0,0,1,.84-.77Zm-.2,1.65v.48a1.05,1.05,0,0,1-.53.89L24.78,9.86c-.3.16-.54.12-.54-.08a1.67,1.67,0,0,1,.53-1S26.6,7.75,27.68,7.25Zm-.27,2.57a.54.54,0,0,1,.77.26s0,0,.08.26a.65.65,0,0,1-.35.72S25.44,12.45,25,12.74l-.35-.69a.67.67,0,0,1,.26-.85Zm-.19,5.29a.61.61,0,0,1-.83-.09c-.16-.24-.44-1.07-.15-1.24l2.41-1.47a.63.63,0,0,1,.83.12c.17.24.45.94.17,1.13Zm2.2,3.29-1.48-1.47c.12,0,2.84-2,2.84-2a.69.69,0,0,1,.89.09l.51.5a.48.48,0,0,1,0,.77S30.35,17.63,29.42,18.4Zm4,2.56a.77.77,0,0,1-.94,0l-1-.67a.5.5,0,0,1,0-.78l2.15-1.8a.75.75,0,0,1,.94,0l.8.65a.52.52,0,0,1,0,.8Zm4.17,2.93a.75.75,0,0,1-.93.09l-1.22-.8a.48.48,0,0,1-.07-.77l2-1.87a.77.77,0,0,1,.93-.06l1.59,1.07C39.59,21.92,37.62,23.89,37.62,23.89Zm4.06-.57a.73.73,0,0,1,.91-.14l1.22.73a.52.52,0,0,1,.18.77l-1.53,2.09a.68.68,0,0,1-.87.21l-2-1.14C40,25.27,41.68,23.32,41.68,23.32Zm6.12,6.16a.65.65,0,0,1-.83.28l-1.71-.88a.52.52,0,0,1-.23-.76l1.45-2.19a.68.68,0,0,1,.86-.22s1.82.95,1.93.95Zm5.6,2.44a.65.65,0,0,1-.82.32l-1.76-.79a.56.56,0,0,1-.29-.78l1.12-2.23a.66.66,0,0,1,.82-.32l1.62.68a.6.6,0,0,1,.32.79Zm3.74-1.35a.56.56,0,0,1,.76-.33l1.53.54a.65.65,0,0,1,.42.78L59.17,34a.57.57,0,0,1-.73.4l-1.81-.61a.6.6,0,0,1-.37-.76Zm18,4a.78.78,0,0,1,.61.71l.13,3.3c-.25,0-2-.27-2-.27a.74.74,0,0,1-.6-.7V34.91a.51.51,0,0,1,.6-.51Zm4.46.39a.81.81,0,0,1,.7.64s.52,3.23.52,3.35l-1.74-.09a.75.75,0,0,1-.68-.63l-.31-2.74a.5.5,0,0,1,.54-.57Zm4,0a.77.77,0,0,1,.75.56l.7,2.76a.52.52,0,0,1-.47.64l-.84.06a.8.8,0,0,1-.73-.59s-.62-3-.62-3.36Zm7.72,1.7a.64.64,0,0,1-.34.8,1,1,0,0,0-.3.11.52.52,0,0,1-.64-.38l-.91-2.66a.64.64,0,0,1,.22-.77c.22-.1.86-.06,1,.25ZM92.86,36c-.17.2-.42.1-.56-.2,0,0-1.29-2.94-1.29-3.06s.3-.45.3-.45a.38.38,0,0,1,.67.1l1.1,2.47A1.47,1.47,0,0,1,92.86,36Zm-.36-4.5a1.89,1.89,0,0,1-.14-.91c0-.2.31-.34.46,0l1,2.22a2.25,2.25,0,0,1,.12,1.15c-.07.37-.22.39-.36.07ZM64.27,36.23a.48.48,0,0,0,.65-.41l.42-2.65a.68.68,0,0,0-.5-.75L63.3,32a.56.56,0,0,0-.71.43L62.05,35a.69.69,0,0,0,.45.78Zm5.62,1.39a.53.53,0,0,0,.65-.48l.16-2.73a.71.71,0,0,0-.56-.72l-1.46-.25a.52.52,0,0,0-.64.47l-.21,2.25-.06.73a1,1,0,0,0,.6.37Zm18.26.74a.54.54,0,0,0,.42-.7l-.89-2.78a.59.59,0,0,0-.66-.46c-.28.07-.93.52-.85.84L86.86,38a.62.62,0,0,0,.71.47Zm-1,30.8a1.08,1.08,0,0,0,.78-.67l.76-2.56c.08-.32-.11-.51-.44-.43l-.91.31a1.18,1.18,0,0,0-.76.73l-.76,2.29c-.1.32.09.54.42.48Zm-16.63.21a.78.78,0,0,0,.79-.52l.83-2.43a.47.47,0,0,0-.42-.64l-2.26-.33a.73.73,0,0,0-.8.47l-.8,2.42a.5.5,0,0,0,.41.67Zm-5.71-4.74a.52.52,0,0,1,.39.7l-.86,2.44a.68.68,0,0,1-.78.43l-2.49-.5a.56.56,0,0,1-.4-.72l.85-2.54a.69.69,0,0,1,.78-.44ZM93,66.52c-.23.24-.34.17-.25-.15L93.5,64a3.16,3.16,0,0,1,.57-1l.39-.38c.21-.26.27-.24.17.08l-.75,2.29a4.24,4.24,0,0,1-.51,1.21Zm-1.1-2c.3-.13.47,0,.38.35l-.75,2.41a1.54,1.54,0,0,1-.75.82c-.29.12-1,.13-.86-.19l.77-2.43a1.26,1.26,0,0,1,.74-.76ZM81.09,70a.41.41,0,0,1-.44-.55L81.42,67a.93.93,0,0,1,.78-.61l1.49-.15a.37.37,0,0,1,.43.51l-.87,2.56a.92.92,0,0,1-.79.59Zm-6-.19a.42.42,0,0,1-.4-.59l.78-2.43a.78.78,0,0,1,.78-.52L78,66.4a.5.5,0,0,1,.45.64l-.72,2.31a.82.82,0,0,1-.79.55ZM53.46,65.58a.55.55,0,0,1-.36-.74l.9-2.38a.67.67,0,0,1,.79-.39l2.66.76a.55.55,0,0,1,.36.74L56.89,66a.67.67,0,0,1-.79.39Zm-7.62-2.47a.63.63,0,0,1-.37-.79l.89-2.43a.59.59,0,0,1,.77-.37l2.69,1.06a.6.6,0,0,1,.35.78l-.9,2.36a.62.62,0,0,1-.77.38Zm-3.66-5.4a.65.65,0,0,1,.34.81s-1,2.64-1,2.88l-3.25-1.25a.6.6,0,0,1-.34-.79l1-2.4a.6.6,0,0,1,.79-.34ZM31.66,53.59a.55.55,0,0,1,.77-.3l2.5,1.18a.68.68,0,0,1,.3.83l-1,2.35a.57.57,0,0,1-.79.28l-2.38-1.16a.63.63,0,0,1-.33-.8Zm-3.75-2.72a.75.75,0,0,1,.3.87l-.92,2.33a.52.52,0,0,1-.75.26l-2.27-1.25a.68.68,0,0,1-.28-.85L25,50a.56.56,0,0,1,.78-.28Zm-6.27-3.6a.75.75,0,0,1,.26.89l-1,2.22a.48.48,0,0,1-.74.2l-1.84-1.23a.79.79,0,0,1-.24-.91l1-2.16a.5.5,0,0,1,.75-.21Zm-6.25-.78a.48.48,0,0,1-.74.19l-1.5-1.21a.86.86,0,0,1-.19-.95l1-2.17a.48.48,0,0,1,.75-.16l1.44,1.08a.78.78,0,0,1,.24.91Zm-3.66-7.08a1,1,0,0,1,.16,1l-1.1,2.35a.4.4,0,0,1-.69.14L9,41.72a1,1,0,0,1-.13-1l1-2.16a.39.39,0,0,1,.68-.13ZM7,34.76a.34.34,0,0,1,.63-.06l.55.84a1.08,1.08,0,0,1,.1,1l-1.1,2.35c-.13.3-.39.32-.57,0L6,38.07A1.23,1.23,0,0,1,5.92,37Zm-2.15.59c-.14.31-.38.31-.55,0L4.16,35a1.38,1.38,0,0,1,0-1.09l1.08-2.34c.13-.31.37-.31.52,0L6,32a1.33,1.33,0,0,1,0,1.07ZM5,28.18c.15-.29.25-.26.22.07l-.07.64A3.25,3.25,0,0,1,4.87,30l-1.35,2.9c0-.73.06-1.49.06-1.49a4.31,4.31,0,0,1,.33-1.15ZM84.3,79.26a2.35,2.35,0,0,1,.86-.67c.27-.1.7-.1.49.17L84,81.06a2.89,2.89,0,0,1-.93.7l-.82.34C82.2,82,84.3,79.26,84.3,79.26Zm-3.62,2.93a1.7,1.7,0,0,1-1,.59l-.88.2c-.32.06-.43-.11-.24-.38l1.76-2.34a1.92,1.92,0,0,1,.94-.64l.93-.2c.31-.08.43.07.23.35ZM76.26,83a1.4,1.4,0,0,1-1,.52l-1.37.06c-.34,0-.46-.19-.26-.46l1.52-2.21a1.53,1.53,0,0,1,.94-.57l1.51-.14c.34,0,.45.19.27.46ZM54.8,81.38a.44.44,0,0,1-.3-.67l1.27-2.39a.84.84,0,0,1,.88-.39l2.39.59a.43.43,0,0,1,.3.66l-1.26,2.28a.91.91,0,0,1-.89.4Zm-7.16-1.94a.49.49,0,0,1-.32-.71l1.1-2.3a.74.74,0,0,1,.84-.38l2.52.72c.32.08.47.32.33.53L51,79.6a5.15,5.15,0,0,0-.27.6,1.1,1.1,0,0,1-.7,0ZM36.87,71.77a.63.63,0,0,1,.35.8l-.92,2.31a.63.63,0,0,1-.79.36l-2.46-1a.67.67,0,0,1-.34-.82l.83-2.31a.57.57,0,0,1,.76-.34Zm-7.65,0a.52.52,0,0,1-.73.33l-2.23-1.07a.81.81,0,0,1-.4-.87l.68-2.4a.49.49,0,0,1,.71-.32l2.35,1.09a.72.72,0,0,1,.39.83Zm-6.37-6.73a.8.8,0,0,1,.37.87l-.68,2.53a.45.45,0,0,1-.69.29l-2-1.13a.89.89,0,0,1-.39-.89l.73-3.11ZM16.7,61.33a.93.93,0,0,1,.38.91l-.61,2.64a.39.39,0,0,1-.63.26L14.14,64a1,1,0,0,1-.4-.93l.49-2.68a.36.36,0,0,1,.6-.25Zm-5.46-3.89a1.09,1.09,0,0,1,.38,1l-.49,2.77c-.05.34-.3.43-.56.22L9.2,60.23a1.24,1.24,0,0,1-.4-1l.42-2.66a.33.33,0,0,1,.57-.23Zm-4-3.3c0,.24-.41,3.34-.41,3.34,0,.33-.28.41-.52.19l-1-1a1.44,1.44,0,0,1-.35-1l.32-2.8c0-.33.26-.41.49-.17ZM.7,50.24A2.63,2.63,0,0,1,.49,49.1l.26-2.74c0-.34.18-.37.35-.08a3.07,3.07,0,0,1,.34,1.25l-.33,2.92c0,.34-.17.38-.31.11S.7,50.24.7,50.24Zm1.7,2.82A2,2,0,0,1,2.11,52l.35-2.77c0-.33.23-.38.44-.12l.48.67a1.6,1.6,0,0,1,.33,1.06l-.28,3c0,.34-.2.4-.41.14ZM42.78,78a.64.64,0,0,0,.8-.36l1.09-2.3a.54.54,0,0,0-.33-.75l-2.64-1a.59.59,0,0,0-.77.34L40,76.36a.56.56,0,0,0,.37.74ZM63.84,83a1.09,1.09,0,0,0,.93-.44L66.2,80.3a.37.37,0,0,0-.3-.59l-2.21-.34a.92.92,0,0,0-.89.43l-1.39,2.4a.37.37,0,0,0,.31.59Zm6.17.51a1.11,1.11,0,0,0,.93-.46l1.49-2.3c.19-.28.07-.52-.27-.54l-1.89,0a1.07,1.07,0,0,0-.91.49L67.88,82.9c-.18.27-.06.52.27.56ZM11.29,79c-.12,0-.82-.79-.82-.79a5.69,5.69,0,0,1-.71-1L8.25,74.5c-.16-.29-.11-.32.11-.07l.53.47a4,4,0,0,1,.68,1A28.17,28.17,0,0,0,11.29,79Zm2.78,2.18c.16.29.1.34-.15.11L13,80.6a2.32,2.32,0,0,1-.74-.9l-1-2.22c-.13-.3,0-.4.26-.22l.62.42a2.84,2.84,0,0,1,.75.9Zm2.59,2.1a2.74,2.74,0,0,1-.78-.88l-1.1-2.33c-.13-.32,0-.42.28-.24l1.08.72a2.16,2.16,0,0,1,.68.92l.88,2.15c.13.31,0,.39-.23.18Zm4,0a1.53,1.53,0,0,1,.67.87l.37,1.67c.11.31-.05.44-.34.29l-1-.57a2,2,0,0,1-.75-.87L19,82.76c-.09-.32.07-.44.36-.27Zm10.42,5a.69.69,0,0,1,.38.82l-.32,1a.54.54,0,0,1-.73.35L29.19,90a.93.93,0,0,1-.52-.84l.14-1.24a.46.46,0,0,1,.66-.36Zm5.48,2.06a.42.42,0,0,1,.24.67l-.73,1a.85.85,0,0,1-.93.28l-1.2-.41a.53.53,0,0,1-.31-.75l.52-1.09a.68.68,0,0,1,.83-.34Zm2.85,1.59a1,1,0,0,1,1-.32l1.65.45c.33.09.39.34.15.57l-1.07.91a1.31,1.31,0,0,1-1.05.26l-1.24-.39a.36.36,0,0,1-.18-.63Zm8,1.41c.34.07.37.25.1.44l-1.8,1a1.9,1.9,0,0,1-1.13.14l-1-.23c-.33-.07-.37-.28-.08-.46l1.27-.9A1.48,1.48,0,0,1,45.83,93Zm.67,2.27c-.33,0-.35-.19,0-.34l2-1.05a5.91,5.91,0,0,1,.6-.28l.67.1,1.23.19c.33,0,.35.2,0,.32l-3,1.24C49.4,95.78,48.11,95.6,48.11,95.6ZM54.6,96a3.38,3.38,0,0,1-1.18.18l-1.2-.07c-.33,0-.35-.15,0-.26l2.83-1a2.69,2.69,0,0,1,1.15-.23l.88.06c.34,0,.37.15.07.31Zm5.15-1.3c.62,0,1.5-.07,1.5-.07.33,0,.35,0,0,.15L58.1,95.82a6.21,6.21,0,0,1-1.33.29h-.36c-.33,0-.34-.07,0-.19ZM24.67,87.9a1.39,1.39,0,0,1-.68-.84l-.2-1.52c0-.33.2-.47.49-.31l1.4.65a1.12,1.12,0,0,1,.52.89L26.25,88a.35.35,0,0,1-.53.36ZM96.83,48.13c0-.74,0-3.45,0-3.45,0-.36,0-.58-.09-.34a13.56,13.56,0,0,0-.14,1.53l.08,2,.06.67A1.94,1.94,0,0,0,96.83,48.13Zm-1.31-1.26c.14-.21.27-.1.3.23L96,49.35a2.16,2.16,0,0,1-.21,1c-.14.24-.74.52-.74.2l-.1-2.37A3.9,3.9,0,0,1,95.52,46.87Zm-5.65,6.51a.76.76,0,0,0,.6-.71V50.18a.49.49,0,0,0-.6-.5l-.78.15a.76.76,0,0,0-.6.72V53a.5.5,0,0,0,.6.5Zm-4.32.68a.72.72,0,0,0,.63-.66l.07-2.48a.54.54,0,0,0-.58-.56l-1.26,0a.7.7,0,0,0-.63.64l-.07,2.5a.58.58,0,0,0,.58.6ZM67.92,52.52a.57.57,0,0,0,.7-.46l.52-2.51a.61.61,0,0,0-.48-.7l-2.14-.41a.68.68,0,0,0-.74.49l-.58,2.4a.59.59,0,0,0,.46.71ZM61,50.87a.54.54,0,0,0,.71-.41l.68-2.39a.6.6,0,0,0-.41-.75l-2.28-.66a.63.63,0,0,0-.76.41l-.69,2.32a.67.67,0,0,0,.43.78ZM13.33,16a5.87,5.87,0,0,1-.48.44,1.68,1.68,0,0,1,.23-.49s.23-.45.39-.74a4,4,0,0,1,.74-.91l1.3-1.06c.26-.22.35-.22.22,0a10.33,10.33,0,0,1-.82,1.26Zm1.22-.15c.24-.22.41-.19.38.08a3.58,3.58,0,0,1-.38,1.41L12.7,19.09c-.23.23-.42.15-.42-.18v-.27a1.69,1.69,0,0,1,.42-1Zm-1.29,6.73a9.87,9.87,0,0,0-.38-1,1,1,0,0,1,.18-1l1.63-1.71a.43.43,0,0,1,.72.09,7.21,7.21,0,0,1,.44.95Zm2.63,2.76a.48.48,0,0,1-.76,0l-.52-.76a.75.75,0,0,1,.05-.92l1.75-1.83a.47.47,0,0,1,.76.07l.55.73a.77.77,0,0,1-.06.92Zm3.18,3.55a.53.53,0,0,1-.81,0l-.87-.86a.65.65,0,0,1,0-.89L19,25.26a.58.58,0,0,1,.84,0l1.29,1.3C21,26.54,19.07,28.9,19.07,28.9Zm3.67-.17a.61.61,0,0,1,.86-.08l1.16,1a.65.65,0,0,1,.11.87l-1.51,2.1a.56.56,0,0,1-.82.11l-1.76-1.46C20.78,31.1,22.74,28.73,22.74,28.73Zm5.66,7.4a.58.58,0,0,1-.83.15L26,35.13a.6.6,0,0,1-.15-.83l1.41-2.09a.61.61,0,0,1,.84-.16l1.58,1.06a.61.61,0,0,1,.18.84Zm5.88,3.44a.63.63,0,0,1-.83.23l-1.91-1.13a.6.6,0,0,1-.2-.82l1.33-2.18a.64.64,0,0,1,.85-.2l1.78,1.11a.63.63,0,0,1,.23.84Zm7.4.16a.57.57,0,0,1,.3.78l-1.21,2.35a.59.59,0,0,1-.8.28l-2.23-1.06a.59.59,0,0,1-.27-.8L38.68,39a.62.62,0,0,1,.82-.28Zm6.55,3a.66.66,0,0,1,.34.81l-.93,2.32a.6.6,0,0,1-.78.33l-2.33-1a.58.58,0,0,1-.3-.79L45.3,42a.64.64,0,0,1,.82-.31Zm6.88,2.5a.61.61,0,0,1,.37.78l-.81,2.31a.66.66,0,0,1-.79.39l-2.42-.76a.56.56,0,0,1-.37-.73L52,44.72a.59.59,0,0,1,.77-.35Zm20.31,4.76c0,.74-.3,3.1-.3,3.1a.62.62,0,0,1-.67.54l-2-.23a.6.6,0,0,1-.53-.67l.45-2.51a.61.61,0,0,1,.69-.51Zm5.19.47a.59.59,0,0,1,.56.63L81,53.54a.64.64,0,0,1-.66.56S78.63,54,78.13,54l.32-3.09a.64.64,0,0,1,.66-.57Zm12.26,2.12a.36.36,0,0,1-.55-.35l-.1-2.61a.79.79,0,0,1,.49-.77c.29-.09,1-.06,1,.27l.1,2.37a1,1,0,0,1-.56.85ZM60.37,15.75a.58.58,0,0,1-.76.32c-.28-.13-1-.59-.81-.87L59.48,14a.68.68,0,0,1,.74-.38c.25.09.8.61.68.92Zm11.91,3.9c.33.06.5-.14.37-.46L72,17.48a1.16,1.16,0,0,0-.65-.64c-.23,0-.78.1-.67.41l.57,1.67a1,1,0,0,0,.69.65A1.58,1.58,0,0,1,72.28,19.65Zm-3.06-.52c.31.08.52-.13.45-.46l-.38-1.54a1,1,0,0,0-.57-.7c-.25-.07-.79,0-.74.36l.19,1.52C68.21,18.64,68.91,19.07,69.22,19.13Zm-3.11-.79a.37.37,0,0,0,.52-.41l0-1.49a.79.79,0,0,0-.48-.74c-.24-.07-1,0-1,.35L65,17.43C65,17.76,65.8,18.24,66.11,18.34Zm-4.19-2a.6.6,0,0,0,.31.76c.26.1,1.16.16,1.23-.16l.23-1.28a.67.67,0,0,0-.34-.78c-.26-.1-.93-.05-1,.27ZM44.42,3.49c0-.15.27-.29.6-.29l2.5,0c.34,0,.61.09.61.21s-.27.36-.61.37L45,3.86C44.7,3.88,44.42,3.65,44.42,3.49Zm6.36-3c.31.06.37.15.14.18a4.45,4.45,0,0,1-1.14,0l-1-.17c-.33,0-.33-.11,0-.14l.2,0L49.6.22C49.67.21,50.48.38,50.78.45Zm-1.23.67a1.93,1.93,0,0,1-.79,0L46.2.9a.92.92,0,0,1,.2-.1A3.57,3.57,0,0,1,47.58.66l1.75.18C49.66.87,49.65,1.07,49.55,1.12Zm-1.17.35c.33,0,.56.1.5.15a1.75,1.75,0,0,1-.86.27l-2.25-.17c-.33,0-.49-.15-.35-.28a1.27,1.27,0,0,1,.85-.22Zm-.6.79c.32,0,.55.09.48.19a1.09,1.09,0,0,1-.73.29l-2.37-.09c-.33,0-.54-.12-.47-.29Zm.71,2.68-3.06.32c-.34,0-.67-.07-.74-.22s.14-.43.47-.46c0,0,2-.19,3.1-.19Zm-.27.72a1.13,1.13,0,0,1,.78.12.37.37,0,0,1-.24.56l-2.28.35c-.33.06-.66,0-.74-.08s-.13-.58.2-.63Zm-.8,2.63a.9.9,0,0,1-.84-.1c-.14-.15-.23-.67.1-.74L48.81,7a1,1,0,0,1,.76,0c.08.09.13.56-.18.66Zm1.92,1.62a.94.94,0,0,1-.84,0c-.16-.12-.49-.66-.17-.78l1.91-.68a1.07,1.07,0,0,1,.85,0c.15.12.4.56.09.69Zm2.42,1.52a4.27,4.27,0,0,0-.57.39s-.28-.11-.55-.31l-.33-.22a.32.32,0,0,1,0-.61l1.75-.84a1.07,1.07,0,0,1,1,0c.24.15.43.55.14.72Zm2.53,1.65a.9.9,0,0,1-1,.09L53,12.89a.36.36,0,0,1,0-.66l1.31-.91a1,1,0,0,1,1-.07c.27.14.52.57.27.79Zm2.93,1.41a.73.73,0,0,1-.9.2,7.87,7.87,0,0,0-1-.48l1.43-1.52a.79.79,0,0,1,.89-.2c.26.13.67.63.47.9ZM75.64,20s-1-.13-1.36-.13l-1.11-2.28c-.15-.3,0-.54.25-.54a1.11,1.11,0,0,1,.83.51S75.64,19.87,75.64,20ZM78,19.9,76.92,20c0-.12-1.57-2.44-1.57-2.44-.18-.28-.18-.5,0-.5a1.64,1.64,0,0,1,1,.5Zm1.64-.3a1,1,0,0,1-1-.35l-1.44-1.86c-.21-.25-.27-.5-.13-.54a1.27,1.27,0,0,1,.92.31s1.84,2.35,2,2.35Zm1.61-.55a.83.83,0,0,1-.9-.25L78.78,17c-.22-.24-.31-.49-.2-.53a1,1,0,0,1,.78.25l2.1,2.17ZM79.8,16.37c-.24-.24-.28-.55-.08-.7l2.29,2c.24.23.37.51.27.62a.6.6,0,0,1-.72-.1Zm.63-.88c-.25-.23-.4-.47-.35-.55s.36-.06.62.15L83,16.93v.25c-.12.21-.41.21-.65,0Zm.37-.85c-.27-.2-.47-.46-.46-.58s.1-.17.38,0l1.64,1.23a1.46,1.46,0,0,1,.52.69c0,.17-.17.14-.43-.08Zm-.19-1.08a2.05,2.05,0,0,1-.67-.84l-.08-.23s2.24,1.59,2.34,1.72a3.72,3.72,0,0,1,.5.87A21.18,21.18,0,0,0,80.61,13.56Zm-.74-1.35a3,3,0,0,1-.63-.52c-.07-.1,0-.28.26-.09l1.22.8a3.17,3.17,0,0,1,.81.86,2,2,0,0,0,.18.22C81.59,13.35,79.87,12.21,79.87,12.21Z"/></g></g></svg>